<svg width="450" height="80" viewBox="0 0 450 80" fill="none" xmlns="http://www.w3.org/2000/svg">
<path d="M131.49 8.57001L120.84 13.54L120.79 70.65H131.49V8.57001Z" fill="#292C35"/>
<path d="M152.07 58.1C150.849 56.9794 149.881 55.6113 149.231 54.0869C148.581 52.5624 148.263 50.9169 148.3 49.26C148.251 47.6269 148.565 46.0034 149.219 44.506C149.872 43.0087 150.849 41.6747 152.08 40.6C154.509 38.4221 157.668 37.237 160.93 37.28C162.661 37.2019 164.386 37.5313 165.967 38.2417C167.547 38.9521 168.939 40.0236 170.03 41.37L178.29 35.15C176.315 32.7051 173.803 30.7479 170.95 29.43C166.658 27.4855 161.895 26.8284 157.237 27.5384C152.579 28.2485 148.227 30.2951 144.71 33.43C142.509 35.4299 140.768 37.8837 139.608 40.6219C138.448 43.3602 137.896 46.3176 137.99 49.29C137.905 52.2818 138.461 55.2571 139.62 58.0166C140.779 60.7761 142.514 63.256 144.71 65.29C149.088 69.4239 154.909 71.6814 160.93 71.58C164.407 71.5978 167.845 70.8501 171 69.39C173.886 68.0662 176.418 66.0789 178.39 63.59L170.04 57.45C168.962 58.8204 167.574 59.9149 165.99 60.6434C164.406 61.3719 162.672 61.7135 160.93 61.64C157.627 61.667 154.445 60.3958 152.07 58.1V58.1Z" fill="#292C35"/>
<path d="M202.26 27.25C196.42 27.1188 190.767 29.3089 186.54 33.34C182.29 37.34 180.14 42.74 180.14 49.26C180.14 55.78 182.3 61.18 186.55 65.26C190.81 69.2389 196.421 71.452 202.25 71.452C208.079 71.452 213.69 69.2389 217.95 65.26C222.2 61.16 224.35 55.77 224.35 49.26C224.35 42.75 222.2 37.38 217.95 33.34C213.73 29.3163 208.089 27.1268 202.26 27.25V27.25ZM210.66 58C208.387 60.1441 205.38 61.3383 202.255 61.3383C199.13 61.3383 196.123 60.1441 193.85 58V58C192.717 56.8528 191.831 55.4851 191.248 53.9817C190.665 52.4784 190.397 50.8713 190.46 49.26C190.405 47.6856 190.678 46.1169 191.261 44.6536C191.845 43.1902 192.726 41.8643 193.85 40.76C196.138 38.6446 199.139 37.4696 202.255 37.4696C205.371 37.4696 208.372 38.6446 210.66 40.76C211.784 41.8643 212.665 43.1902 213.249 44.6536C213.832 46.1169 214.105 47.6856 214.05 49.26C214.119 50.8779 213.853 52.4926 213.27 54.0033C212.687 55.5139 211.798 56.8881 210.66 58.04V58Z" fill="#292C35"/>
<path d="M255.31 27.25C249.25 26.95 243.85 29.62 241.66 32.42L240.83 33.48V28.33L230.42 33.17V70.63H240.83V47.77C240.83 41.06 244.36 37.37 250.77 37.37C258.87 37.37 259.5 45.12 259.5 47.5V70.63H269.9V42.52C269.9 35.49 266.07 27.78 255.31 27.25Z" fill="#292C35"/>
<path d="M316.85 14.41C313.57 10.54 308.66 8.58002 302.25 8.58002H277.12V70.65H287.9V48.25H302.25C308.66 48.25 313.58 46.32 316.85 42.52C320.18 38.6262 321.96 33.6425 321.85 28.52C321.955 23.3652 320.177 18.3489 316.85 14.41V14.41ZM308.6 35.6C307.782 36.635 306.73 37.4604 305.53 38.0082C304.331 38.5559 303.018 38.8102 301.7 38.75H287.9V18.09H302.07C303.366 18.0318 304.656 18.2986 305.823 18.8662C306.99 19.4339 307.996 20.2843 308.75 21.34C310.251 23.4276 311.05 25.9387 311.03 28.51C311.058 31.0823 310.2 33.5859 308.6 35.6Z" fill="#292C35"/>
<path d="M350.96 28.75C348.644 27.7901 346.167 27.281 343.66 27.25C340.84 27.2168 338.042 27.7422 335.426 28.796C332.81 29.8499 330.429 31.4112 328.42 33.39C324.17 37.46 322.02 42.83 322.02 49.39C322.02 55.95 324.19 61.28 328.47 65.39C330.474 67.3615 332.847 68.9185 335.454 69.972C338.06 71.0256 340.849 71.555 343.66 71.53C346.207 71.485 348.72 70.9308 351.05 69.9C353.368 68.9973 355.354 67.4058 356.74 65.34L357.59 64V70.7H368V28.31L357.59 33.13V34.65L356.74 33.36C355.343 31.2566 353.321 29.6442 350.96 28.75V28.75ZM353.91 58.2C351.521 60.3549 348.413 61.5393 345.196 61.5208C341.978 61.5023 338.884 60.2822 336.52 58.1C335.341 56.9689 334.403 55.6111 333.763 54.1083C333.122 52.6055 332.792 50.9887 332.792 49.355C332.792 47.7213 333.122 46.1045 333.763 44.6017C334.403 43.0989 335.341 41.7411 336.52 40.61C338.873 38.382 342 37.1557 345.24 37.19C348.422 37.1598 351.499 38.327 353.86 40.46C355.037 41.6165 355.973 42.9951 356.613 44.5159C357.253 46.0367 357.585 47.6695 357.59 49.3196C357.595 50.9697 357.272 52.6043 356.64 54.1286C356.008 55.653 355.08 57.0369 353.91 58.2V58.2Z" fill="#292C35"/>
<path d="M385.27 32.04L384.48 32.85V28.24L374.08 33.09V70.63H384.48V51.21C384.48 42.67 388.38 37.72 395.76 36.91C398.433 36.7251 401.117 37.0648 403.66 37.91L403.88 28.65C401.764 27.7373 399.484 27.2644 397.18 27.26C394.975 27.2111 392.783 27.6095 390.736 28.431C388.689 29.2525 386.829 30.4802 385.27 32.04V32.04Z" fill="#292C35"/>
<path d="M428.5 47.15L445.97 28.88H432.8L420.35 42.38V8.57001L410.21 13.3V70.65H420.35V51.62L437.1 70.65H449.85L428.5 47.15Z" fill="#292C35"/>
<path d="M0 79.26L25.45 67.39V0L0 11.86V79.26Z" fill="#067C5A"/>
<path d="M33.57 79.26L59.02 67.39V0L33.57 11.86V79.26Z" fill="#08DFAD"/>
<path d="M67.14 49.56L92.59 37.69V0L67.14 11.86V49.56Z" fill="#08DFAD"/>
</svg>
